<?xml version="1.0" encoding="UTF-8"?>
<svg width="501px" height="360px" viewBox="0 0 501 360" version="1.1" xmlns="http://www.w3.org/2000/svg" xmlns:xlink="http://www.w3.org/1999/xlink">
    <!-- Generator: Sketch 52.2 (67145) - http://www.bohemiancoding.com/sketch -->
    <title>CustomControl</title>
    <desc>Created with Sketch.</desc>
    <defs>
        <linearGradient x1="50%" y1="2.69451531%" x2="50%" y2="98.3956473%" id="linearGradient-1">
            <stop stop-color="#1E65B1" offset="0%"></stop>
            <stop stop-color="#8EBFDA" offset="49.7189892%"></stop>
            <stop stop-color="#BDD5EF" offset="100%"></stop>
        </linearGradient>
        <linearGradient x1="50%" y1="0%" x2="50%" y2="50%" id="linearGradient-2">
            <stop stop-color="#F0F3F9" offset="0%"></stop>
            <stop stop-color="#DFE8F2" offset="100%"></stop>
        </linearGradient>
        <linearGradient x1="51.5678326%" y1="25.5687446%" x2="48.6700139%" y2="70.8411114%" id="linearGradient-3">
            <stop stop-color="#DDE4F5" offset="0%"></stop>
            <stop stop-color="#D8DFEF" offset="100%"></stop>
        </linearGradient>
        <linearGradient x1="50%" y1="1.30817303%" x2="50%" y2="64.6052067%" id="linearGradient-4">
            <stop stop-color="#FBFCFF" offset="0%"></stop>
            <stop stop-color="#E2EBF8" offset="100%"></stop>
        </linearGradient>
        <linearGradient x1="51.2053073%" y1="32.3548494%" x2="48.5429967%" y2="64.5314952%" id="linearGradient-5">
            <stop stop-color="#ECEFF7" offset="0%"></stop>
            <stop stop-color="#D7DEF1" offset="54.5858578%"></stop>
            <stop stop-color="#DEE4F5" offset="100%"></stop>
        </linearGradient>
        <linearGradient x1="50%" y1="99.4430813%" x2="50%" y2="18.7246728%" id="linearGradient-6">
            <stop stop-color="#DAE1F3" offset="0%"></stop>
            <stop stop-color="#F4F5F9" offset="100%"></stop>
        </linearGradient>
    </defs>
    <g id="Page-1" stroke="none" stroke-width="1" fill="none" fill-rule="evenodd">
        <g id="CustomControl">
            <rect id="Sky" fill="url(#linearGradient-1)" fill-rule="nonzero" x="0" y="0" width="500" height="350"></rect>
            <path d="M60,327 C60,327 103.833333,244.333333 191.5,79 L323,327 C147.666667,327 60,327 60,327 Z" id="Mountain_l" fill="#D2D5DE" fill-rule="nonzero"></path>
            <path d="M158.7,140.870163 C158.7,140.870163 169.633563,120.254223 191.500689,79.0223431 L224.32705,141.09798 L218.326553,152.669251 L206.813628,133.386761 L191.7,162 L177.857122,139.339807 L165.150294,149.202078 C160.850098,143.647468 158.7,140.870163 158.7,140.870163 Z" id="Summit_left" fill="#F2F3F5" fill-rule="nonzero"></path>
            <polygon id="Shadow_left" fill-opacity="0.6" fill="#A4B3C3" fill-rule="nonzero" points="191.520293 79.0149014 188.024221 121.457483 198.052362 153.214252 188.024221 179.204339 198.052362 215.506518 184 262.394332 198.052362 293.715938 193.051013 327 322.791568 327"></polygon>
            <path d="M216,327 C216,327 263,235.333333 357,52 L498,327 C310,327 216,327 216,327 Z" id="Mountain_r" fill="#D2D5DE" fill-rule="nonzero"></path>
            <polygon id="Summit_right" fill="#F2F3F5" fill-rule="nonzero" points="316.744743 130.469162 357.008267 52.0434426 398.493119 133.055147 390.646596 136.309796 377.142035 118.243413 355.239388 139.009354 343.318478 123.925013 326.466003 135.349421"></polygon>
            <polygon id="Shadow_right" fill-opacity="0.6" fill="#A4B3C3" fill-rule="nonzero" points="356.980177 52 350.489183 95.003074 362.709227 118.232704 346.599413 146.05462 366.980292 181.139901 346.599413 226.475906 358.390563 254.897444 335.974729 327 498 327"></polygon>
            <g id="Snow" transform="translate(0.000000, 144.000000)" fill-rule="nonzero">
                <path d="M500.3969,11.8344886 C459.285989,2.11894519 424.724364,-1.61460439 396.712024,0.633839871 C354.693515,4.00650627 300.555708,5.00608821 263.301666,11.8344886 C238.465638,16.3867556 209.698416,22.1375985 177,29.0870175 C177,50.521388 177,61.1328469 177,60.9213943 C177,60.7099417 177,84.5087849 177,132.317924 L500.3969,132.317924 L500.3969,11.8344886 Z" id="Snow_hill_right" fill="url(#linearGradient-2)"></path>
                <path d="M263.607213,12 C237.929906,23.7679183 237.098924,32.6970988 261.114267,38.7875416 C297.137281,47.9232058 326.538806,46.0710173 386.696812,47.9232058 C426.80215,49.157998 464.868715,51.429485 500.896507,54.7376666 L500.872007,67.0554415 L205.880618,84.9292252 C198.338165,50.4161281 196.209811,30.9581607 199.495557,26.5553232 C202.781304,22.1524857 224.151855,17.3007113 263.607213,12 Z" id="Snow_shadow_right" fill="url(#linearGradient-3)"></path>
                <path d="M0,5.644602 C63.3351443,4.43367333 103.912829,4.92885352 121.733053,7.13014258 C148.463389,10.4320762 180.834108,13.7999647 203.431597,24.6804789 C226.029086,35.5609931 238.572365,39.4969015 250.743779,42.9384417 C256.846502,44.6640231 277.635412,50.0542563 301.472161,52.9151309 C325.175985,55.760052 351.132186,56.5539775 366.009087,57.6134137 C385.900573,59.029956 430.558653,61.1437545 499.983327,63.9548094 L499.9452,132.238476 L0,132.238476 L0,5.644602 Z" id="Snow_hill_left" fill="url(#linearGradient-4)"></path>
                <path d="M241.486144,40 C269.089429,57.2765808 270.717954,69.7572531 246.702611,75.8476959 C210.679597,84.98336 181.278072,83.1311716 121.120066,84.98336 C81.014728,86.2181523 40.6413728,87.4594321 1.13686838e-12,88.7071993 L1.13686838e-12,128.835218 C168.439527,130.544056 269.176343,129.694144 302.210445,126.285482 C335.244548,122.876819 401.165292,110.910479 499.972678,90.3864615 C499.793674,80.0561041 499.793674,71.1260303 499.972678,63.5962401 L323.021601,54.5695717 C304.803125,53.3227542 287.624152,51.1762188 270.774142,47.6538934 C265.486944,46.5486578 255.723921,43.8626851 241.486144,40 Z" id="Snow_shadow_left" fill="url(#linearGradient-5)"></path>
                <path d="M500,65 C481.888559,67.7621208 450.413676,72.4591457 405.575354,79.0910747 C380.182926,82.846808 338.327713,90.4888808 298.175714,94.4056921 C241.54935,99.9295708 156.268208,102.7342 122.882658,104.587562 C87.1260576,106.572551 46.1651716,108.280211 -5.68434189e-14,109.710542 L-5.68434189e-14,216 L500,216 L500,65 Z" id="Snow_hill_button" fill="url(#linearGradient-6)"></path>
            </g>
            <g id="Slider_lines" stroke-linecap="square" transform="translate(0.000000, 121.000000)">
                <rect id="slider" fill-opacity="0.85" fill="#D2D5DE" fill-rule="nonzero" x="0" y="0" width="51" height="229" rx="11"></rect>
                <path d="M50.5,205.5 L27.5,205.5" id="Line" stroke="#60656D"></path>
                <path d="M50.5,185.5 L32.25,185.5" id="Line" stroke="#60656D"></path>
                <path d="M50.5,165.5 L27.5,165.5" id="Line" stroke="#60656D"></path>
                <path d="M50.5,145.5 L32.25,145.5" id="Line" stroke="#60656D"></path>
                <path d="M50.5,125.5 L22.5,125.5" id="Line" stroke="#60656D"></path>
                <path d="M50.5,105.5 L27.5,105.5" id="Line" stroke="#60656D"></path>
                <path d="M50.5,85.5 L32.25,85.5" id="Line" stroke="#60656D"></path>
                <path d="M50.5,65.5 L27.5,65.5" id="Line" stroke="#60656D"></path>
                <path d="M50.5,45.5 L32.25,45.5" id="Line" stroke="#60656D"></path>
                <path d="M50.5,24.5 L23.5,24.5" id="Line" stroke="#60656D"></path>
            </g>
            <path d="M12.3398566,215.038508 L20.4408278,229.620256 C20.9772541,230.585824 20.6293665,231.80343 19.663799,232.339857 C19.366683,232.504921 19.0324017,232.591542 18.6925132,232.591542 L2.4905709,232.591542 C1.3860014,232.591542 0.490570903,231.696112 0.490570903,230.591542 C0.490570903,230.251654 0.577191899,229.917372 0.742256335,229.620256 L8.84322748,215.038508 C9.37965383,214.07294 10.5972604,213.725053 11.5628279,214.261479 C11.889308,214.442857 12.1584788,214.712027 12.3398566,215.038508 Z" id="Triangle" fill="#4988C1" transform="translate(11.291056, 223.300486) rotate(90.000000) translate(-11.291056, -223.300486) "></path>
            <g id="Snowflakes" transform="translate(16.000000, 13.000000)" fill="#E7EDF5" fill-opacity="0.85" fill-rule="nonzero">
                <circle id="Oval" cx="67" cy="24" r="5"></circle>
                <circle id="Oval" cx="426" cy="89" r="5"></circle>
                <circle id="Oval" cx="445" cy="58" r="5"></circle>
                <circle id="Oval" cx="82" cy="133" r="5"></circle>
                <circle id="Oval" cx="235.5" cy="92.5" r="3.5"></circle>
                <circle id="Oval" cx="293.5" cy="69.5" r="3.5"></circle>
                <circle id="Oval" cx="200.5" cy="48.5" r="3.5"></circle>
                <circle id="Oval" cx="400.5" cy="16.5" r="3.5"></circle>
                <circle id="Oval" cx="62.5" cy="193.5" r="3.5"></circle>
                <circle id="Oval" cx="47.5" cy="105.5" r="3.5"></circle>
                <circle id="Oval" cx="3.5" cy="41.5" r="3.5"></circle>
                <circle id="Oval" cx="462.5" cy="162.5" r="3.5"></circle>
                <circle id="Oval" cx="423.5" cy="136.5" r="3.5"></circle>
                <circle id="Oval" cx="118.5" cy="56.5" r="6.5"></circle>
                <circle id="Oval" cx="456.5" cy="12.5" r="6.5"></circle>
                <circle id="Oval" cx="254.5" cy="169.5" r="6.5"></circle>
                <circle id="Oval" cx="318.5" cy="24.5" r="6.5"></circle>
                <circle id="Oval" cx="210" cy="6" r="6"></circle>
                <circle id="Oval" cx="266" cy="131" r="5"></circle>
                <circle id="Oval" cx="256.5" cy="36.5" r="4.5"></circle>
            </g>
            <path d="M10.4091783,349.941364 C6.45936548,349.941364 0.296051714,345.875634 0.296051714,341.299228 C0.296051714,336.722823 0.319506462,133.955254 0.296051714,130.825617 C0.272596966,127.695979 4.42185105,120.925973 10.4091783,120.925973 C16.3965055,120.925973 37.1017347,120.925973 40.8169372,120.925973 C44.5321398,120.925973 50.9924081,124.52258 50.9924081,130.825617 C50.9924081,137.128654 51.1632302,337.093501 51.0778192,340.289463 C50.9924081,343.485425 47.8414265,349.941364 41.7124699,349.941364 C35.5835133,349.941364 14.3589911,349.941364 10.4091783,349.941364 Z" id="SnowSlider_form"></path>
            <path d="M60,326.230011 C65.8399357,317.583807 70.3585845,310.249763 73.5559462,304.227879 C76.7533079,298.205996 115.969962,223.169346 191.205908,79.1179317 L268.070128,224.378075 L356.628947,52 L497.459991,326.230011 L109.837163,326.230011 L84.1345599,326.230011 L60,326.230011 Z" id="Mountains_form"></path>
        </g>
    </g>
</svg>