
<?xml version="1.0" encoding="UTF-8"?>
<svg width="81px" height="85px" viewBox="0 0 81 85" version="1.1" xmlns="http://www.w3.org/2000/svg" xmlns:xlink="http://www.w3.org/1999/xlink">
    <!-- Generator: Sketch 48.2 (47327) - http://www.bohemiancoding.com/sketch -->
    <title>Moon</title>
    <desc>Created with Sketch.</desc>
    <defs>
        <linearGradient x1="0%" y1="0%" x2="101.999998%" y2="100.999999%" id="linearGradient-1">
            <stop stop-color="#3023AE" offset="0%"></stop>
            <stop stop-color="#C86DD7" offset="100%"></stop>
        </linearGradient>
        <linearGradient x1="0%" y1="0%" x2="101.999998%" y2="100.999999%" id="linearGradient-2">
            <stop stop-color="#3023AE" offset="1.21970663%"></stop>
            <stop stop-color="#C86DD7" offset="100%"></stop>
        </linearGradient>
    </defs>
    <g id="Page-1" stroke="none" stroke-width="1" fill="none" fill-rule="evenodd">
        <path d="M40.5,83.8852459 C53.1179563,83.8852459 62.76852,81.4384001 70,75.442623 C75.2710619,71.072271 80,65.0922401 80,55.442623 C80,52.3169263 76.2142129,57.0972842 70,58.942623 C59.2603896,62.1317989 43.1661139,51.6164996 40.5,47.442623 C36.9961323,41.9572192 33.9149889,25.5810705 36.5,15.442623 C39.1439296,5.07309625 47.4207881,1 40.5,1 C18.6847524,1 1,19.5544943 1,42.442623 C1,65.3307516 18.6847524,83.8852459 40.5,83.8852459 Z" id="Moon" stroke="url(#linearGradient-2)" fill="url(#linearGradient-1)"></path>
    </g>
</svg>